ModelForces
version=1
nRows=4
nColumns=155
inDegrees=no

This file contains the forces exerted on a model during a simulation.

A force is a generalized force, meaning that it can be either a force (N) or a torque (Nm).

Units are S.I. units (second, meters, Newtons, ...)
Angles are in degrees.

endheader
time	glut_med1_r	glut_med2_r	glut_med3_r	glut_min1_r	glut_min2_r	glut_min3_r	semimem_r	semiten_r	bifemlh_r	bifemsh_r	sar_r	add_long_r	add_brev_r	add_mag1_r	add_mag2_r	add_mag3_r	tfl_r	pect_r	grac_r	glut_max1_r	glut_max2_r	glut_max3_r	iliacus_r	psoas_r	quad_fem_r	gem_r	peri_r	rect_fem_r	vas_med_r	vas_int_r	vas_lat_r	med_gas_r	lat_gas_r	soleus_r	tib_post_r	flex_dig_r	flex_hal_r	tib_ant_r	per_brev_r	per_long_r	per_tert_r	ext_dig_r	ext_hal_r	glut_med1_l	glut_med2_l	glut_med3_l	glut_min1_l	glut_min2_l	glut_min3_l	semimem_l	semiten_l	bifemlh_l	bifemsh_l	sar_l	add_long_l	add_brev_l	add_mag1_l	add_mag2_l	add_mag3_l	tfl_l	pect_l	grac_l	glut_max1_l	glut_max2_l	glut_max3_l	iliacus_l	psoas_l	quad_fem_l	gem_l	peri_l	rect_fem_l	vas_med_l	vas_int_l	vas_lat_l	med_gas_l	lat_gas_l	soleus_l	tib_post_l	flex_dig_l	flex_hal_l	tib_ant_l	per_brev_l	per_long_l	per_tert_l	ext_dig_l	ext_hal_l	ercspn_r	ercspn_l	intobl_r	intobl_l	extobl_r	extobl_l	femur_lat_meniscii_r.femur_lat_r.force.X	femur_lat_meniscii_r.femur_lat_r.force.Y	femur_lat_meniscii_r.femur_lat_r.force.Z	femur_lat_meniscii_r.femur_lat_r.torque.X	femur_lat_meniscii_r.femur_lat_r.torque.Y	femur_lat_meniscii_r.femur_lat_r.torque.Z	femur_lat_meniscii_r.meniscus_lat_r.force.X	femur_lat_meniscii_r.meniscus_lat_r.force.Y	femur_lat_meniscii_r.meniscus_lat_r.force.Z	femur_lat_meniscii_r.meniscus_lat_r.torque.X	femur_lat_meniscii_r.meniscus_lat_r.torque.Y	femur_lat_meniscii_r.meniscus_lat_r.torque.Z	femur_med_meniscii_r.femur_med_r.force.X	femur_med_meniscii_r.femur_med_r.force.Y	femur_med_meniscii_r.femur_med_r.force.Z	femur_med_meniscii_r.femur_med_r.torque.X	femur_med_meniscii_r.femur_med_r.torque.Y	femur_med_meniscii_r.femur_med_r.torque.Z	femur_med_meniscii_r.meniscus_med_r.force.X	femur_med_meniscii_r.meniscus_med_r.force.Y	femur_med_meniscii_r.meniscus_med_r.force.Z	femur_med_meniscii_r.meniscus_med_r.torque.X	femur_med_meniscii_r.meniscus_med_r.torque.Y	femur_med_meniscii_r.meniscus_med_r.torque.Z	femur_med_tibia_r.tibia_upper_r.force.X	femur_med_tibia_r.tibia_upper_r.force.Y	femur_med_tibia_r.tibia_upper_r.force.Z	femur_med_tibia_r.tibia_upper_r.torque.X	femur_med_tibia_r.tibia_upper_r.torque.Y	femur_med_tibia_r.tibia_upper_r.torque.Z	femur_med_tibia_r.femur_med_r.force.X	femur_med_tibia_r.femur_med_r.force.Y	femur_med_tibia_r.femur_med_r.force.Z	femur_med_tibia_r.femur_med_r.torque.X	femur_med_tibia_r.femur_med_r.torque.Y	femur_med_tibia_r.femur_med_r.torque.Z	femur_lat_tibia_r.tibia_upper_r.force.X	femur_lat_tibia_r.tibia_upper_r.force.Y	femur_lat_tibia_r.tibia_upper_r.force.Z	femur_lat_tibia_r.tibia_upper_r.torque.X	femur_lat_tibia_r.tibia_upper_r.torque.Y	femur_lat_tibia_r.tibia_upper_r.torque.Z	femur_lat_tibia_r.femur_lat_r.force.X	femur_lat_tibia_r.femur_lat_r.force.Y	femur_lat_tibia_r.femur_lat_r.force.Z	femur_lat_tibia_r.femur_lat_r.torque.X	femur_lat_tibia_r.femur_lat_r.torque.Y	femur_lat_tibia_r.femur_lat_r.torque.Z	aACL_R	pACL_R	aPCL_R	pPCL_R	aMCL_R	mMCL_R	pMCL_R	aLCL_R	mLCL_R	pLCL_R	aPCL_L	pPCL_L	aMCL_L	aLCL_L
      0.20956689	      9.71377439	      7.14933719	      7.67495650	      3.32225776	      3.89909219	      4.10688899	      0.00000000	    163.84390773	    182.41267307	    341.34288943	    122.44281735	      7.10256530	      5.16353731	      3.67756931	      3.10871561	      5.17242758	      3.30680383	      2.80133440	     92.72767550	      4.61404377	      7.01647383	      5.25942251	     25.35003224	     16.02607996	      4.55362545	      3.29455440	      5.57204424	    113.88052267	     40.74170444	     31.62234100	     56.14395398	      0.00000000	      0.00000000	      0.00000000	      0.00000000	      0.00000000	      0.00000000	     35.61086015	      1.37512234	      3.16545310	     23.10986552	     49.00511364	     11.77472640	      9.71377439	      7.14933719	      7.67495650	      3.32225776	      3.89909219	      4.10688899	     10.58644943	      5.24331469	     10.26097444	      9.06196744	      1.89691803	      7.10256530	      5.16353731	      3.67756931	      3.10871561	      5.17242758	      4.83082314	      2.80133440	      1.95313144	      4.61404377	      7.01647383	      5.25942251	     25.35003224	     16.02607996	      4.55362545	      3.29455440	      5.57204424	     14.20097748	      0.00000000	      0.00000000	      0.00000000	     19.33030527	      9.03019467	     42.98098376	     47.27525350	      4.17683831	      3.63787241	     11.12735949	      5.88784373	     15.82983686	      2.47899981	      7.87047585	      2.52086638	     31.26087044	     31.26087044	     11.47313341	     11.47313341	     29.02915354	     29.02915354	    169.40740352	    102.50132128	      8.91902558	     -5.90002852	      3.93353826	     67.27809276	   -169.40740352	   -102.50132128	     -8.91902558	      2.65193418	     -4.62039644	      2.30967726	      0.04245702	      0.00103812	     -0.02657126	      0.01057938	     -0.00065978	      0.01687808	     -0.04245702	     -0.00103812	      0.02657126	     -0.00009787	      0.00126876	     -0.00010637	   -890.22564173	   -367.62564535	    315.41011118	     -8.27616758	     21.82442603	      2.27228333	    890.22564173	    367.62564535	   -315.41011118	    133.62859584	    -15.61031714	    358.77007912	   -297.73079026	   -133.20111602	    -80.82142591	      4.32887185	    -10.27042716	      0.98119406	    297.73079026	    133.20111602	     80.82142591	    -35.85211540	      7.29678496	    120.04528578	      0.85162016	      0.00000000	    963.97660325	    608.86423745	     23.88327997	      9.73307493	      0.00000000	      0.00000000	      0.00000000	      0.00000000	      0.00000000	      0.00000000	      0.00000001	      0.00000000
      0.20958802	      9.71317455	      7.14892732	      7.67451105	      3.32207531	      3.89889343	      4.10663540	      0.00000000	    163.85705790	    182.43201826	    341.35617312	    122.44364347	      7.10215331	      5.16325638	      3.67736002	      3.10853416	      5.17209853	      3.30667521	      2.80117950	     92.73054895	      4.61377870	      7.01606969	      5.25911441	     25.34928215	     16.02522682	      4.55336987	      3.29443142	      5.57171568	    113.91746184	     40.74632948	     31.66160565	     56.14929586	      0.00000000	      0.00000000	      0.00000000	      0.00000000	      0.00000000	      0.00000000	     35.61056276	      1.37361367	      3.16338969	     23.10471180	     48.99545749	     11.77189867	      9.71317455	      7.14892732	      7.67451105	      3.32207531	      3.89889343	      4.10663540	     10.58680187	      5.24299285	     10.26027696	      9.06145836	      1.89681435	      7.10215331	      5.16325638	      3.67736002	      3.10853416	      5.17209853	      4.83061950	      2.80117950	      1.95302279	      4.61377870	      7.01606969	      5.25911441	     25.34928215	     16.02522682	      4.55336987	      3.29443142	      5.57171568	     14.20000783	      0.00000000	      0.00000000	      0.00000000	     19.32929583	      9.02969419	     42.97798594	     47.27394023	      4.17620642	      3.63730925	     11.12662357	      5.88742532	     15.82897523	      2.47886817	      7.87017881	      2.52077865	     31.25914980	     31.25914980	     11.47244811	     11.47244811	     29.02853569	     29.02853569	    169.36760394	    102.59022401	      8.95849875	     -5.91797966	      3.93283976	     67.26035713	   -169.36760394	   -102.59022401	     -8.95849875	      2.65456963	     -4.62077507	      2.31506985	      0.04232013	      0.00104594	     -0.02648033	      0.01054324	     -0.00065760	      0.01682349	     -0.04232013	     -0.00104594	      0.02648033	     -0.00009746	      0.00126450	     -0.00010537	   -890.33322327	   -367.64483297	    315.46608801	     -8.27443556	     21.82724276	      2.27879302	    890.33322327	    367.64483297	   -315.46608801	    133.65054751	    -15.61172957	    358.81111019	   -297.74649677	   -133.24502157	    -80.82801360	      4.32945240	    -10.27139833	      0.98529574	    297.74649677	    133.24502157	     80.82801360	    -35.85545328	      7.29720513	    120.05012651	      0.82604455	      0.00000000	    964.14190691	    608.99514657	     23.86210601	      9.72059239	      0.00000000	      0.00000000	      0.00000000	      0.00000000	      0.00000000	      0.00000000	      0.00000001	      0.00000000
      0.20959858	      9.71287470	      7.14872243	      7.67428837	      3.32198411	      3.89879408	      4.10650863	      0.00000000	    163.86360664	    182.44163800	    341.36259701	    122.44402541	      7.10194736	      5.16311595	      3.67725539	      3.10844345	      5.17193404	      3.30661095	      2.80110207	     92.73196085	      4.61364619	      7.01586766	      5.25896040	     25.34890718	     16.02480034	      4.55324211	      3.29436995	      5.57155141	    113.93596913	     40.74861833	     31.67961668	     56.15193717	      0.00000000	      0.00000000	      0.00000000	      0.00000000	      0.00000000	      0.00000000	     35.61041786	      1.37285915	      3.16235670	     23.10212713	     48.99063472	     11.77048704	      9.71287470	      7.14872243	      7.67428837	      3.32198411	      3.89879408	      4.10650863	     10.58697759	      5.24283196	     10.25992829	      9.06120387	      1.89676252	      7.10194736	      5.16311595	      3.67725539	      3.10844345	      5.17193404	      4.83051770	      2.80110207	      1.95296848	      4.61364619	      7.01586766	      5.25896040	     25.34890718	     16.02480034	      4.55324211	      3.29436995	      5.57155141	     14.19952310	      0.00000000	      0.00000000	      0.00000000	     19.32879112	      9.02944396	     42.97648728	     47.27328373	      4.17589053	      3.63702774	     11.12625569	      5.88721616	     15.82854449	      2.47880236	      7.87003028	      2.52073477	     31.25828966	     31.25828966	     11.47210552	     11.47210552	     29.02822683	     29.02822683	    169.36804817	    102.64415966	      8.96643833	     -5.92241939	      3.93284507	     67.25962359	   -169.36804817	   -102.64415966	     -8.96643833	      2.65602872	     -4.62105248	      2.31791208	      0.04225191	      0.00104984	     -0.02643522	      0.01052532	     -0.00065652	      0.01679629	     -0.04225191	     -0.00104984	      0.02643522	     -0.00009726	      0.00126239	     -0.00010487	   -890.39803638	   -367.67492803	    315.49183399	     -8.27369150	     21.82865982	      2.28271171	    890.39803638	    367.67492803	   -315.49183399	    133.66081475	    -15.61253409	    358.83586454	   -297.67923622	   -133.11659765	    -81.20188350	      4.33191701	    -10.28499572	      0.98246842	    297.67923622	    133.11659765	     81.20188350	    -36.00583633	      7.30067484	    120.02372416	      0.81360288	      0.00000000	    964.22435347	    609.05998248	     23.85129881	      9.71407913	      0.00000000	      0.00000000	      0.00000000	      0.00000000	      0.00000000	      0.00000000	      0.00000001	      0.00000000
      0.20962781	      9.71204528	      7.14815569	      7.67367244	      3.32173183	      3.89851925	      4.10615798	      0.00000000	    163.88163368	    182.46806841	    341.37961464	    122.44497500	      7.10137769	      5.16272750	      3.67696599	      3.10819255	      5.17147906	      3.30643329	      2.80088788	     92.73578142	      4.61327967	      7.01530883	      5.25853438	     25.34787001	     16.02362067	      4.55288872	      3.29419990	      5.57109695	    113.98726901	     40.75487016	     31.72461126	     56.15914753	      0.00000000	      0.00000000	      0.00000000	      0.00000000	      0.00000000	      0.00000000	     35.61003011	      1.37077095	      3.15949421	     23.09495229	     48.97730953	     11.76658908	      9.71204528	      7.14815569	      7.67367244	      3.32173183	      3.89851925	      4.10615798	     10.58746200	      5.24238694	     10.25896383	      9.06049993	      1.89661915	      7.10137769	      5.16272750	      3.67696599	      3.10819255	      5.17147906	      4.83023612	      2.80088788	      1.95281825	      4.61327967	      7.01530883	      5.25853438	     25.34787001	     16.02362067	      4.55288872	      3.29419990	      5.57109695	     14.19818231	      0.00000000	      0.00000000	      0.00000000	     19.32739471	      9.02875166	     42.97234167	     47.27146777	      4.17501671	      3.63624906	     11.12523809	      5.88663759	     15.82735300	      2.47862033	      7.86961928	      2.52061334	     31.25591046	     31.25591046	     11.47115792	     11.47115792	     29.02737252	     29.02737252	    169.32644973	    102.74529494	      9.03817502	     -5.95359691	      3.93237087	     67.24067611	   -169.32644973	   -102.74529494	     -9.03817502	      2.65920497	     -4.62256832	      2.32449941	      0.04206130	      0.00106063	     -0.02630868	      0.01047503	     -0.00065348	      0.01672029	     -0.04206130	     -0.00106063	      0.02630868	     -0.00009670	      0.00125647	     -0.00010349	   -890.44649837	   -367.41053819	    316.02401844	     -8.27541984	     21.84859942	      2.28252496	    890.44649837	    367.41053819	   -316.02401844	    133.87388359	    -15.61793262	    358.85434513	   -297.76335998	   -132.84947726	    -81.17281423	      4.32476645	    -10.28620381	      0.97411842	    297.76335998	    132.84947726	     81.17281423	    -35.98830592	      7.30199180	    120.06015888	      0.77771045	      0.00000000	    964.45295687	    609.24082456	     23.82125544	      9.69612457	      0.00000000	      0.00000000	      0.00000000	      0.00000000	      0.00000000	      0.00000000	      0.00000001	      0.00000000
